<?xml version="1.0" standalone="no"?>
<!DOCTYPE svg PUBLIC "-//W3C//DTD SVG 20010904//EN"
 "http://www.w3.org/TR/2001/REC-SVG-20010904/DTD/svg10.dtd">
<svg version="1.0" xmlns="http://www.w3.org/2000/svg"
 width="1080.000000pt" height="1080.000000pt" viewBox="0 0 1080.000000 1080.000000"
 preserveAspectRatio="xMidYMid meet">
<metadata>
Created by potrace 1.14, written by Peter Selinger 2001-2017
</metadata>
<g transform="translate(0.000000,1080.000000) scale(0.100000,-0.100000)"
fill="#000000" stroke="none">
<path d="M0 5400 l0 -5400 5400 0 5400 0 0 5400 0 5400 -5400 0 -5400 0 0
-5400z m5570 3995 c325 -7 540 -22 590 -40 23 -8 46 -13 51 -10 4 3 27 1 51
-4 24 -5 84 -17 133 -27 50 -9 95 -20 100 -24 6 -4 37 -16 70 -26 33 -10 67
-23 75 -30 8 -6 33 -17 55 -24 93 -29 415 -209 415 -232 0 -4 5 -8 11 -8 18 0
143 -120 188 -180 14 -19 29 -37 33 -40 4 -3 31 -43 62 -88 55 -83 95 -172
102 -226 2 -16 9 -35 15 -43 7 -7 13 -28 15 -45 2 -18 10 -36 18 -40 9 -5 13
-22 11 -53 -2 -26 0 -43 6 -40 8 5 13 -7 11 -27 -3 -21 99 -42 308 -63 36 -4
68 -9 71 -10 9 -6 201 -36 236 -37 18 -1 35 -8 38 -16 3 -8 12 -12 21 -8 9 3
21 3 27 -1 7 -4 18 -8 26 -10 7 -1 34 -7 60 -13 25 -6 57 -12 71 -14 14 -2 33
-7 43 -11 10 -4 21 -5 24 -1 4 3 14 -1 24 -10 9 -8 32 -18 51 -21 18 -3 42
-10 53 -16 11 -6 26 -10 34 -8 7 1 10 -2 6 -8 -3 -6 -3 -16 1 -22 5 -8 8 -8
14 0 5 9 14 8 33 -2 15 -8 24 -17 20 -21 -4 -4 0 -4 8 -1 9 3 27 -5 43 -20 15
-13 30 -24 34 -24 20 3 32 -3 32 -16 0 -8 3 -14 8 -13 19 4 62 -16 62 -29 0
-8 5 -11 10 -8 15 9 40 -14 40 -37 0 -10 4 -17 8 -14 5 3 14 -3 22 -14 7 -10
19 -16 27 -13 9 4 13 0 12 -8 -5 -21 19 -59 36 -59 8 0 15 -5 15 -11 0 -14 64
-96 92 -119 20 -16 43 -52 54 -82 3 -10 10 -18 14 -18 5 0 12 -9 15 -21 4 -11
16 -42 28 -67 11 -26 20 -49 19 -52 0 -3 3 -9 8 -15 4 -5 11 -34 15 -64 4 -31
10 -48 15 -41 7 11 11 -2 27 -85 2 -11 6 -40 8 -65 8 -85 16 -145 22 -170 6
-28 9 -59 17 -172 3 -43 10 -86 16 -98 6 -11 7 -26 3 -33 -4 -6 -8 -167 -10
-357 -1 -190 -7 -365 -12 -390 -5 -25 -12 -88 -14 -140 -5 -95 -20 -231 -38
-325 -29 -160 -41 -217 -58 -280 -22 -84 -68 -232 -79 -260 -17 -39 -117 -240
-122 -245 -3 -3 -25 -35 -48 -71 -42 -65 -168 -199 -210 -222 -11 -7 -48 -31
-81 -54 -33 -24 -65 -43 -70 -43 -5 0 -11 -4 -13 -8 -3 -7 -129 -71 -183 -92
-83 -34 -335 -99 -480 -124 -386 -66 -653 -61 -1342 24 -136 17 -273 33 -303
36 -30 3 -93 9 -140 14 -679 74 -663 73 -1130 74 -400 1 -449 -1 -605 -22 -93
-13 -235 -32 -315 -42 -80 -11 -210 -24 -290 -30 -80 -6 -188 -16 -240 -21
-52 -5 -178 -16 -280 -24 -102 -7 -275 -21 -385 -30 -449 -38 -883 4 -1265
122 -289 89 -454 201 -586 396 -133 196 -257 521 -289 752 -9 66 -20 147 -26
180 -15 100 -17 131 -25 390 -3 138 -10 254 -15 260 -12 12 -11 38 1 30 6 -4
9 32 8 95 -1 72 -4 97 -12 91 -8 -7 -12 17 -14 84 -2 59 1 95 7 100 7 4 11 -9
12 -37 0 -33 2 -38 9 -23 15 35 12 125 -6 142 -14 14 -14 17 -1 25 14 7 21 98
19 246 0 12 4 22 10 22 5 0 6 -5 2 -12 -5 -7 -3 -8 5 -4 7 5 10 14 7 21 -6 16
18 223 38 324 16 85 128 318 203 423 101 142 334 332 506 412 237 111 490 171
977 235 l205 26 -3 60 c-4 98 15 182 63 282 25 51 45 95 45 99 0 29 227 282
288 321 15 10 33 26 40 35 7 10 19 18 26 18 7 0 30 14 51 30 21 17 43 30 50
30 7 0 24 11 39 25 15 14 36 25 46 25 10 0 21 4 25 10 3 5 12 7 19 4 7 -3 27
8 45 23 17 16 43 30 58 31 16 1 37 6 48 11 58 25 91 35 215 66 231 57 493 100
675 110 55 3 109 8 120 10 11 2 139 7 285 11 146 4 266 8 268 9 2 2 38 1 80 0
42 -2 183 -6 312 -10z m-2865 -5765 c4 -6 -11 -34 -33 -63 -22 -29 -47 -67
-56 -84 -9 -18 -19 -33 -23 -33 -3 0 -3 31 -1 70 7 88 26 120 73 120 18 0 37
-5 40 -10z m-165 -14 c0 -23 -22 -76 -31 -76 -13 0 -11 64 3 78 16 16 28 15
28 -2z m5155 -40 c40 -17 60 -47 43 -64 -15 -15 -87 -16 -122 -2 -30 11 -34
40 -10 64 19 20 45 20 89 2z m-5165 -381 c0 -69 2 -76 23 -84 12 -5 36 -23 52
-41 69 -73 156 -80 222 -18 29 27 34 22 19 -22 -30 -92 -213 -95 -298 -4 -36
39 -78 121 -78 153 0 29 34 91 50 91 6 0 10 -31 10 -75z m5276 50 c13 -52 -1
-132 -31 -175 -41 -59 -138 -105 -223 -105 -57 0 -66 3 -88 28 -22 26 -24 36
-22 115 l2 87 3 -72 c3 -64 7 -75 30 -93 31 -24 99 -27 131 -4 35 24 120 141
132 182 6 20 13 43 15 50 8 23 44 14 51 -13z"/>
<path d="M4875 9271 c-3 -2 -57 -5 -122 -8 -65 -2 -139 -8 -164 -14 -25 -6
-50 -9 -55 -8 -10 3 -166 -18 -234 -32 -25 -5 -74 -11 -110 -14 -54 -4 -161
-19 -287 -40 -12 -2 -27 -6 -33 -10 -6 -4 -26 -9 -43 -12 -18 -2 -37 -11 -43
-19 -6 -7 -30 -15 -53 -18 -45 -4 -67 -18 -57 -34 4 -7 17 -7 35 -2 16 4 32 6
34 3 3 -2 13 0 24 5 10 6 46 18 81 28 34 11 62 22 62 25 0 3 24 4 53 2 38 -3
48 -2 37 6 -11 8 -4 10 30 9 25 -1 77 1 115 5 103 11 225 19 263 18 19 -1 35
5 38 12 4 13 28 16 116 17 20 0 41 7 48 15 8 10 18 11 40 3 19 -6 35 -6 47 0
10 6 24 7 34 2 18 -10 127 -13 239 -6 43 3 79 1 87 -5 16 -14 54 -1 71 23 7
10 18 16 23 13 5 -4 12 1 15 9 6 16 9 14 50 -23 14 -13 17 -12 26 2 11 21 30
13 21 -8 -3 -8 0 -15 6 -15 6 0 11 5 11 11 0 6 7 8 16 5 8 -3 13 -2 10 3 -6
10 30 22 38 13 10 -9 106 -10 112 0 3 4 14 8 24 8 13 0 17 5 14 15 -7 18 -35
20 -53 3 -10 -11 -14 -10 -22 5 -6 9 -19 17 -31 17 -11 0 -27 -8 -35 -17 -8
-10 -12 -13 -9 -6 4 6 -3 14 -14 18 -21 7 -449 3 -455 -4z m215 -15 c0 -3 -4
-8 -10 -11 -5 -3 -10 -1 -10 4 0 6 5 11 10 11 6 0 10 -2 10 -4z"/>
<path d="M5530 9250 c-8 -5 -10 -10 -5 -10 6 0 17 5 25 10 8 5 11 10 5 10 -5
0 -17 -5 -25 -10z"/>
<path d="M6113 9223 c-35 -13 18 -42 72 -41 17 0 47 -3 69 -7 31 -7 38 -5 34
6 -2 8 -19 15 -36 17 -18 2 -32 7 -32 11 0 5 -17 7 -37 7 -21 -1 -42 1 -48 5
-5 3 -16 4 -22 2z"/>
<path d="M5155 9210 c-8 -13 15 -13 35 0 12 8 11 10 -7 10 -12 0 -25 -4 -28
-10z"/>
<path d="M3557 9043 c-12 -12 -7 -22 8 -17 8 4 15 10 15 15 0 11 -14 12 -23 2z"/>
<path d="M5520 9010 c0 -6 -12 -11 -27 -10 -46 3 -64 0 -59 -9 3 -5 -6 -8 -19
-8 -14 0 -28 4 -31 8 -3 5 -10 7 -15 3 -6 -3 -5 -12 3 -22 11 -13 11 -14 -2
-10 -8 2 -15 13 -15 23 0 10 -6 20 -13 23 -9 3 -12 -68 -12 -331 0 -311 -1
-335 -18 -350 -10 -10 -24 -17 -30 -17 -18 0 -14 -18 6 -24 9 -3 136 -8 282
-11 330 -7 746 -23 950 -35 85 -6 223 -12 305 -15 83 -3 209 -9 280 -15 217
-16 335 -22 335 -16 0 2 -5 17 -11 33 -6 15 -12 41 -15 57 -2 15 -7 33 -12 40
-5 6 -15 28 -21 49 -7 20 -17 37 -22 37 -5 0 -9 9 -9 19 0 10 -7 21 -15 25 -8
3 -15 12 -15 21 0 8 -4 15 -9 15 -5 0 -12 11 -15 25 -4 14 -13 25 -20 25 -8 0
-16 7 -18 15 -3 17 -99 134 -110 134 -4 1 -19 12 -34 26 -15 14 -35 25 -45 25
-11 0 -19 5 -19 10 0 6 -7 10 -15 10 -8 0 -24 9 -35 20 -11 11 -22 20 -24 20
-3 0 -17 5 -33 11 -15 6 -30 10 -32 9 -2 -1 -7 2 -10 7 -10 14 -88 53 -105 53
-9 0 -16 4 -16 9 0 15 -164 48 -265 54 -11 0 -22 4 -25 8 -6 8 -135 21 -226
22 -30 1 -54 4 -54 7 0 4 -36 6 -81 5 -44 0 -82 2 -85 6 -4 6 -250 13 -329 9
-11 -1 -27 -1 -35 0 -8 1 -42 2 -75 4 -33 1 -66 5 -72 9 -8 5 -13 3 -13 -3z"/>
<path d="M4336 8993 c-2 -3 -80 -7 -173 -9 -92 -2 -217 -8 -278 -14 -113 -11
-293 -47 -309 -62 -6 -4 -23 -8 -39 -8 -41 0 -226 -64 -296 -103 -75 -41 -112
-75 -186 -167 -32 -41 -63 -76 -67 -78 -4 -2 -8 -10 -8 -17 0 -8 -6 -20 -13
-27 -20 -20 -43 -78 -57 -138 -6 -30 -17 -74 -22 -98 -8 -32 -8 -46 1 -55 15
-15 330 -13 476 3 248 27 976 58 1462 63 201 2 255 5 265 16 11 12 10 13 -4 8
-10 -4 -18 -2 -18 3 0 5 -5 21 -11 37 -7 15 -13 91 -14 168 -5 258 -19 446
-33 444 -22 -4 -42 2 -42 12 0 6 7 9 15 5 8 -3 15 -2 15 3 0 5 -9 11 -20 14
-13 3 -20 0 -20 -9 0 -8 -7 -14 -15 -14 -18 0 -20 16 -2 23 6 3 -126 5 -295 5
-169 0 -309 -3 -312 -5z"/>
<path d="M5150 8990 c0 -7 -7 -10 -15 -6 -15 5 -21 -15 -8 -28 4 -4 6 -24 4
-46 -2 -28 2 -41 16 -49 14 -8 15 -10 3 -11 -14 0 -16 -28 -17 -211 -1 -115
-5 -235 -8 -265 -4 -40 -2 -54 7 -52 7 2 12 -4 13 -12 0 -20 32 -25 64 -9 50
25 52 29 36 59 -9 18 -11 31 -5 35 6 4 9 90 7 231 -2 191 -4 224 -17 225 -10
0 -11 2 -2 6 13 5 16 71 6 110 -5 19 -10 21 -25 12 -14 -7 -19 -6 -19 2 0 7
-3 9 -7 6 -3 -4 -12 -2 -20 4 -10 9 -13 8 -13 -1z m70 -180 c0 -5 -5 -10 -11
-10 -5 0 -7 5 -4 10 3 6 8 10 11 10 2 0 4 -4 4 -10z"/>
<path d="M7555 8180 c3 -5 8 -10 11 -10 2 0 4 5 4 10 0 6 -5 10 -11 10 -5 0
-7 -4 -4 -10z"/>
<path d="M4215 8120 c-242 -10 -543 -23 -670 -29 -126 -6 -331 -15 -455 -21
-320 -15 -470 -32 -860 -96 -52 -9 -106 -20 -120 -24 -14 -5 -67 -16 -118 -26
-52 -10 -99 -22 -105 -29 -7 -6 -21 -11 -32 -12 -77 -4 -285 -90 -406 -168
-126 -82 -184 -139 -236 -234 -26 -47 -55 -99 -65 -116 -10 -16 -30 -55 -44
-85 -15 -30 -31 -63 -35 -72 -5 -9 -12 -36 -15 -60 -4 -24 -12 -54 -19 -68
-19 -36 -39 -109 -33 -116 3 -2 18 17 33 43 113 193 203 286 401 406 150 92
429 181 719 228 121 20 307 54 488 89 119 24 404 67 552 85 119 14 284 26 480
35 121 6 234 13 250 15 137 20 1038 33 1425 22 129 -4 334 -9 455 -12 275 -7
435 -13 595 -25 69 -5 188 -12 265 -16 77 -3 142 -7 146 -9 3 -2 66 -9 140
-15 399 -31 748 -79 1169 -161 30 -6 117 -26 193 -45 76 -19 162 -34 191 -34
52 0 85 -17 68 -35 -4 -4 3 -4 15 -1 17 6 22 4 18 -7 -3 -7 0 -14 7 -14 33 -1
72 -13 79 -24 4 -6 12 -8 18 -4 7 4 22 0 34 -7 12 -8 39 -14 59 -13 21 0 34
-3 31 -9 -4 -5 1 -7 11 -3 10 4 15 3 11 -3 -8 -13 25 -49 40 -44 6 3 17 -2 24
-10 10 -11 19 -13 38 -5 14 5 28 7 31 4 3 -3 0 -5 -6 -5 -7 0 -12 -4 -12 -9 0
-9 8 -11 58 -12 12 0 20 -4 17 -9 -8 -14 6 -40 22 -40 13 0 13 2 2 17 -13 15
-11 16 14 9 15 -3 27 -3 27 2 0 10 -62 96 -72 100 -5 2 -8 10 -8 18 0 24 -27
15 -32 -11 -3 -14 -1 -25 3 -25 5 0 9 -4 9 -8 0 -4 -9 -8 -19 -8 -11 0 -17 4
-15 8 3 4 0 8 -6 8 -7 0 -3 15 10 35 23 38 17 72 -7 39 -13 -18 -14 -17 -8 7
5 21 -1 32 -36 62 -41 36 -59 40 -59 11 0 -8 -4 -14 -9 -14 -6 0 -6 12 0 30
10 27 8 32 -27 62 -153 135 -366 224 -679 283 -49 9 -124 23 -165 31 -287 53
-818 105 -1284 125 -601 25 -781 29 -1396 33 -518 3 -747 0 -1095 -14z m809
-162 c7 -5 4 -8 -6 -8 -12 0 -18 7 -17 23 0 15 2 17 6 7 3 -8 11 -18 17 -22z
m233 26 c-3 -3 -12 -4 -19 -1 -8 3 -5 6 6 6 11 1 17 -2 13 -5z m493 -4 c0 -5
-2 -10 -4 -10 -3 0 -8 5 -11 10 -3 6 -1 10 4 10 6 0 11 -4 11 -10z m29 -28
c18 2 32 -3 27 -10 -3 -5 -32 -10 -64 -11 -45 -1 -62 3 -73 15 -13 16 -12 17
8 12 13 -4 25 -2 28 2 3 5 19 5 36 0 17 -5 34 -9 38 -8z m-682 2 c-3 -3 -12
-4 -19 -1 -8 3 -5 6 6 6 11 1 17 -2 13 -5z m81 -1 c-10 -2 -26 -2 -35 0 -10 3
-2 5 17 5 19 0 27 -2 18 -5z m95 0 c-7 -2 -19 -2 -25 0 -7 3 -2 5 12 5 14 0
19 -2 13 -5z m74 1 c-3 -3 -12 -4 -19 -1 -8 3 -5 6 6 6 11 1 17 -2 13 -5z m50
0 c-3 -3 -12 -4 -19 -1 -8 3 -5 6 6 6 11 1 17 -2 13 -5z m162 2 c-12 -10 -59
-15 -59 -6 0 5 14 10 32 10 17 0 29 -2 27 -4z m44 -12 c-23 -17 -33 -17 -33
-1 0 6 11 13 26 13 23 2 24 1 7 -12z m287 6 c0 -5 -2 -10 -4 -10 -3 0 -8 5
-11 10 -3 6 -1 10 4 10 6 0 11 -4 11 -10z m70 0 c0 -5 -2 -10 -4 -10 -3 0 -8
5 -11 10 -3 6 -1 10 4 10 6 0 11 -4 11 -10z m-530 -10 c0 -5 -4 -10 -10 -10
-5 0 -10 -7 -10 -15 0 -8 -5 -15 -11 -15 -5 0 -8 4 -5 9 3 4 -11 5 -32 1 -38
-7 -333 -2 -341 6 -12 12 18 17 106 16 222 -3 278 -1 281 8 5 13 22 13 22 0z
m233 -22 c6 -3 72 -4 149 -2 76 2 138 0 138 -5 0 -16 -23 -18 -234 -15 -219 2
-300 9 -291 25 7 11 65 12 65 2 0 -5 34 -8 75 -8 54 0 74 3 71 11 -3 7 -2 15
2 19 4 3 8 0 11 -7 2 -7 9 -16 14 -20z m197 28 c0 -2 -9 -6 -20 -9 -11 -3 -20
-1 -20 4 0 5 9 9 20 9 11 0 20 -2 20 -4z m-890 -16 c0 -5 -5 -10 -11 -10 -5 0
-7 5 -4 10 3 6 8 10 11 10 2 0 4 -4 4 -10z m-65 -10 c-3 -5 -10 -10 -16 -10
-5 0 -9 5 -9 10 0 6 7 10 16 10 8 0 12 -4 9 -10z m105 6 c0 -11 -19 -15 -25
-6 -3 5 1 10 9 10 9 0 16 -2 16 -4z m1228 -27 c34 -1 35 -1 10 -9 -34 -10
-288 0 -288 12 0 5 5 6 10 3 6 -3 10 -2 10 4 0 11 175 10 186 -2 13 -12 24 -8
25 11 1 16 2 16 6 0 3 -13 15 -18 41 -19z m359 15 c-3 -3 -12 -4 -19 -1 -8 3
-5 6 6 6 11 1 17 -2 13 -5z m-2434 -11 c-7 -2 -21 -2 -30 0 -10 3 -4 5 12 5
17 0 24 -2 18 -5z m2204 -17 c-4 -9 -13 -13 -22 -10 -20 8 -19 22 3 26 22 5
26 2 19 -16z m-50 8 c-3 -3 -12 -4 -19 -1 -8 3 -5 6 6 6 11 1 17 -2 13 -5z
m171 -14 l67 -7 -82 -2 c-45 0 -84 3 -87 8 -7 10 14 21 27 14 4 -3 38 -8 75
-13z m92 0 c0 -5 -5 -10 -11 -10 -5 0 -7 5 -4 10 3 6 8 10 11 10 2 0 4 -4 4
-10z m1035 -110 l20 -9 -20 1 c-11 0 -31 4 -45 8 l-25 8 25 0 c14 0 34 -3 45
-8z m120 -20 c17 -7 16 -9 -10 -9 -16 0 -39 4 -50 9 -17 7 -16 9 10 9 17 0 39
-4 50 -9z m895 -180 c0 -5 -10 -10 -22 -9 -22 0 -22 1 -3 9 11 5 21 9 23 9 1
1 2 -3 2 -9z m310 -20 c0 -5 -4 -10 -10 -10 -5 0 -10 5 -10 10 0 6 5 10 10 10
6 0 10 -4 10 -10z m-290 -10 c0 -5 -8 -10 -17 -10 -15 0 -16 2 -3 10 19 12 20
12 20 0z m295 -110 c3 -6 -4 -10 -17 -10 -18 0 -20 2 -8 10 19 12 18 12 25 0z"/>
<path d="M4380 7730 c-374 -16 -665 -30 -690 -35 -14 -2 -99 -9 -189 -15 -154
-11 -233 -21 -561 -72 -74 -11 -144 -21 -155 -21 -109 0 -610 -93 -770 -141
-27 -9 -63 -16 -80 -16 -35 0 -145 -32 -145 -42 0 -4 16 -5 35 -2 19 2 51 6
70 8 21 3 33 1 30 -5 -4 -5 -1 -9 4 -9 20 0 11 -18 -10 -23 -15 -4 -20 -11
-15 -23 4 -11 2 -15 -8 -11 -10 4 -13 1 -10 -7 3 -8 -3 -20 -14 -27 -10 -8
-24 -24 -31 -36 -6 -13 -18 -23 -26 -23 -8 0 -15 -6 -15 -14 0 -14 -28 -28
-61 -31 -8 0 -26 -11 -39 -23 -13 -12 -32 -22 -41 -22 -10 0 -21 -4 -24 -10
-3 -5 -15 -10 -26 -10 -12 0 -19 -5 -17 -12 4 -11 -62 -68 -78 -68 -4 0 -23
-12 -43 -27 -46 -36 -99 -64 -114 -62 -18 3 -84 -29 -91 -43 -3 -7 -3 -3 0 10
4 16 1 22 -11 22 -9 0 -15 7 -13 16 5 29 -17 25 -35 -6 -10 -16 -22 -30 -27
-30 -5 0 -14 -16 -20 -36 -8 -23 -17 -34 -26 -30 -7 3 -16 1 -19 -4 -4 -6 -1
-10 4 -10 6 0 11 -4 11 -10 0 -5 -7 -10 -16 -10 -10 0 -14 -5 -10 -15 4 -12 0
-14 -19 -9 -20 5 -25 2 -30 -23 -12 -53 -18 -68 -26 -73 -12 -8 -30 -143 -30
-218 1 -35 -4 -72 -9 -82 -5 -9 -12 -73 -15 -141 -3 -68 -6 -135 -7 -149 0
-14 0 -29 2 -35 1 -5 2 -34 1 -63 -1 -36 -5 -51 -12 -46 -8 4 -9 -3 -5 -22 14
-63 14 -74 5 -74 -6 0 -8 -17 -4 -42 12 -78 12 -98 4 -98 -5 0 -9 9 -9 20 0
11 -4 20 -9 20 -5 0 -7 -28 -5 -62 3 -35 5 -75 5 -90 0 -21 4 -26 17 -22 14 4
13 3 -2 -6 -16 -11 -18 -21 -12 -94 13 -154 47 -329 65 -340 13 -8 10 48 -3
57 -8 5 -7 10 3 16 7 5 10 14 7 20 -4 6 -3 11 2 11 5 0 20 -33 33 -72 13 -40
33 -86 44 -103 11 -16 25 -41 32 -55 15 -35 142 -170 159 -170 8 0 14 -4 14
-10 0 -5 7 -10 15 -10 8 0 15 -4 15 -9 0 -10 35 -32 82 -51 14 -6 29 -18 32
-26 3 -8 13 -14 23 -14 10 0 27 -7 37 -15 11 -8 28 -15 38 -15 10 0 18 -4 18
-10 0 -5 12 -13 26 -16 14 -4 46 -17 71 -30 24 -13 51 -24 59 -24 8 0 22 -4
32 -10 49 -28 186 -57 452 -95 58 -8 161 -23 230 -34 69 -10 172 -24 230 -31
360 -40 959 -137 1145 -185 67 -18 70 -19 60 -34 -13 -22 -198 -12 -382 19
-307 53 -504 78 -948 120 -564 53 -786 101 -1019 217 -183 91 -270 148 -375
246 l-43 40 5 -54 c16 -160 111 -343 256 -492 96 -99 154 -135 334 -207 172
-68 482 -128 807 -156 219 -18 361 -15 710 17 118 10 343 26 500 34 157 9 400
25 540 36 450 35 598 40 885 34 154 -3 318 -8 365 -10 630 -32 742 -41 1155
-85 458 -49 928 -66 1115 -40 200 28 526 103 640 148 236 93 445 250 576 432
52 73 58 83 99 168 38 79 43 102 20 102 -8 0 -15 -4 -15 -10 0 -5 -5 -10 -10
-10 -6 0 -8 11 -4 27 6 22 4 25 -10 20 -10 -4 -20 -7 -22 -7 -2 0 -4 -7 -4
-15 0 -8 -6 -15 -13 -15 -7 0 -36 -16 -66 -35 -29 -19 -56 -35 -60 -35 -4 0
-16 -8 -27 -17 -35 -31 -123 -78 -225 -121 -67 -28 -331 -104 -454 -131 -144
-32 -542 -78 -910 -106 -115 -9 -302 -25 -415 -36 -248 -24 -524 -35 -605 -24
-56 7 -58 8 -30 17 17 5 122 20 235 34 113 13 212 26 220 29 24 7 395 43 625
60 244 18 439 40 545 60 41 7 113 19 160 26 119 16 379 83 480 123 120 48 204
88 212 102 4 6 19 15 33 18 14 4 25 11 25 17 0 6 5 7 12 3 8 -5 9 -2 5 9 -4
11 -1 17 7 17 7 0 19 6 26 14 6 8 18 12 26 9 9 -3 14 2 14 16 0 12 6 21 15 21
8 0 15 5 15 10 0 6 7 10 15 10 8 0 15 6 15 13 0 6 13 18 30 25 16 7 32 22 35
33 4 11 10 17 15 14 5 -3 11 4 15 14 4 13 11 18 22 14 12 -5 15 -2 10 10 -4
12 -2 14 11 10 15 -6 16 -5 2 12 -14 17 -13 18 3 12 11 -4 17 -1 17 9 0 8 4
12 10 9 5 -3 16 10 24 30 9 20 20 34 25 31 5 -4 12 3 16 14 3 11 10 20 15 20
4 0 11 7 14 16 3 8 2 12 -4 9 -16 -10 -12 25 5 41 11 11 15 12 15 3 0 -10 3
-10 12 -1 10 10 10 17 0 32 -16 25 -15 30 3 30 16 0 27 32 24 65 -3 27 12 85
21 85 7 0 20 -24 20 -35 0 -2 -8 -6 -17 -8 -17 -4 -17 -5 0 -6 24 -1 41 44 26
71 -9 16 -8 23 2 29 8 5 9 9 3 9 -14 0 -17 71 -5 102 9 21 10 22 12 3 7 -49
15 202 14 427 0 190 -3 250 -13 260 -11 11 -12 9 -7 -7 6 -16 5 -17 -4 -5 -7
10 -6 19 5 31 18 20 19 35 1 20 -11 -9 -14 -4 -15 27 -2 70 -15 167 -24 185
-6 12 -6 23 1 31 8 9 6 22 -6 47 -10 19 -16 42 -15 52 2 9 -2 17 -7 17 -6 0
-11 8 -11 19 0 10 -7 24 -15 31 -8 7 -15 19 -15 26 0 8 -4 14 -10 14 -5 0 -10
7 -10 15 0 7 -6 18 -13 22 -7 4 -26 35 -42 68 -17 33 -35 64 -42 68 -7 4 -13
12 -13 17 0 6 -9 19 -20 30 -12 12 -18 25 -15 30 4 6 -1 10 -10 10 -8 0 -19 8
-22 17 -9 24 -35 53 -48 53 -5 0 -18 14 -27 30 -9 17 -24 30 -32 30 -8 0 -19
6 -23 13 -4 7 -29 28 -55 45 -25 18 -53 38 -60 44 -27 25 -211 120 -258 133
-14 4 -29 11 -35 15 -41 33 -416 129 -622 160 -458 69 -748 98 -1213 119 -129
7 -332 16 -450 22 -273 13 -1533 20 -1790 9z m5 -150 c-5 9 -3 9 11 2 11 -5
34 -7 52 -5 17 3 32 1 32 -3 0 -5 45 -9 99 -10 79 -1 98 2 94 13 -3 7 0 13 6
13 6 0 11 -7 11 -15 0 -17 25 -20 35 -5 6 10 43 -6 56 -24 4 -4 16 -3 27 3 15
8 23 8 27 0 4 -6 13 -8 21 -5 8 3 14 2 14 -3 0 -9 71 -8 87 2 6 4 18 1 26 -8
13 -13 16 -13 22 2 5 14 8 15 14 4 7 -11 12 -10 31 1 18 10 24 10 27 1 3 -7 9
-13 14 -13 6 0 8 4 5 9 -3 5 1 11 9 15 10 4 15 -1 15 -14 0 -11 4 -20 10 -20
5 0 7 6 4 14 -4 9 5 15 25 18 17 3 31 1 31 -4 0 -4 -8 -8 -17 -8 -15 0 -16 -2
-3 -10 20 -13 43 -13 35 0 -9 14 8 13 23 -2 9 -9 12 -8 12 4 0 20 49 33 64 17
8 -8 5 -10 -11 -4 -14 4 -23 2 -23 -5 0 -21 28 -21 69 0 l41 20 1 -22 c0 -22
1 -22 8 -3 7 17 17 20 62 18 83 -4 107 -7 115 -15 12 -13 62 -9 67 5 3 9 10 9
23 2 11 -6 43 -8 72 -5 30 3 56 2 58 -2 3 -5 9 -6 14 -3 5 3 11 2 14 -3 7 -12
66 -2 66 10 0 6 11 3 24 -6 17 -11 27 -12 32 -5 3 6 17 8 33 4 14 -4 33 -7 41
-6 8 1 37 1 65 2 27 0 53 3 58 6 4 2 34 6 65 8 43 3 61 0 75 -13 23 -21 21
-21 46 2 12 11 21 15 21 9 0 -11 181 -10 199 2 6 3 11 1 11 -5 0 -8 9 -10 24
-6 13 3 41 -1 62 -11 22 -9 64 -17 94 -19 31 -2 69 -10 85 -18 17 -9 44 -16
61 -16 21 0 37 -7 48 -22 10 -15 14 -17 10 -5 -8 22 2 22 33 -3 14 -11 32 -20
39 -20 8 0 14 -8 14 -18 0 -10 11 -25 25 -32 13 -7 22 -16 20 -20 -6 -10 19
-20 47 -20 14 0 18 -5 14 -16 -4 -12 -2 -15 9 -10 8 3 15 2 15 -2 0 -4 14 -16
30 -27 16 -11 30 -22 30 -25 0 -3 34 -41 75 -85 48 -50 75 -87 75 -101 0 -12
7 -29 15 -37 8 -8 11 -17 8 -21 -3 -3 -1 -11 4 -18 32 -39 93 -239 93 -305 0
-39 9 -65 21 -57 5 3 9 1 9 -5 0 -5 -6 -11 -12 -13 -10 -4 -10 -11 -3 -29 6
-13 10 -73 9 -134 -1 -60 -3 -177 -4 -260 -9 -758 -82 -1047 -330 -1295 -82
-83 -194 -157 -272 -181 -122 -38 -207 -41 -1458 -40 -1902 1 -2078 8 -2225
90 -83 47 -202 218 -271 390 -85 212 -133 600 -134 1088 -1 213 -4 265 -15
277 -13 12 -12 15 1 20 9 4 13 13 10 23 -3 10 -5 52 -5 93 0 115 1 120 9 115
10 -6 23 42 15 55 -3 6 1 24 9 42 15 35 29 83 31 108 2 23 32 85 48 99 8 6 18
23 21 37 4 14 10 23 15 20 8 -5 49 43 47 56 -1 3 13 20 31 36 19 19 27 33 20
36 -9 3 -8 8 3 15 12 8 12 13 2 23 -21 21 -13 38 35 68 26 17 41 30 33 30 -9
0 -5 9 10 25 13 14 32 25 42 25 10 0 18 5 18 10 0 6 14 10 31 10 26 0 29 2 19
14 -9 12 -4 17 31 26 23 6 51 9 61 7 15 -4 18 -2 14 10 -5 12 -2 14 16 8 32
-10 62 -8 66 5 2 5 13 10 25 10 18 0 19 -2 7 -10 -11 -7 -8 -10 15 -10 17 0
36 5 41 10 8 8 15 6 24 -5 11 -14 14 -14 24 1 9 12 34 17 97 20 46 2 104 6
129 9 100 11 136 12 159 3 16 -6 27 -5 31 2 4 7 11 12 16 12 5 0 15 3 23 6 8
3 16 1 18 -4 2 -6 18 -9 36 -7 66 7 169 8 173 1 2 -3 18 -2 36 2 17 5 34 8 37
5 4 -2 13 0 21 5 8 5 22 4 33 -2 15 -7 18 -7 12 2z m-1295 -205 c-7 -8 -17
-15 -23 -15 -5 0 -2 9 8 20 21 23 35 19 15 -5z m-1430 -334 c0 -5 -11 -11 -25
-13 -26 -5 -35 6 -12 15 20 9 37 8 37 -2z m-224 -146 c-3 -9 -11 -13 -16 -10
-8 5 -7 11 1 21 14 18 24 11 15 -11z m-211 5 c3 -5 1 -10 -4 -10 -6 0 -11 5
-11 10 0 6 2 10 4 10 3 0 8 -4 11 -10z m179 -80 c-7 -42 -39 -85 -55 -74 -9 5
-7 11 6 21 11 7 13 13 7 13 -17 0 -15 14 9 55 25 42 41 35 33 -15z m822 -14
c27 -20 7 -38 -34 -30 -47 9 -42 32 9 43 3 0 14 -5 25 -13z m-171 -34 c-3 -3
-11 0 -18 7 -9 10 -8 11 6 5 10 -3 15 -9 12 -12z m6425 -68 c0 -13 17 -19 47
-15 6 1 20 -11 31 -26 21 -30 22 -32 22 -63 0 -14 5 -18 16 -13 13 5 15 2 9
-17 -6 -18 -4 -22 8 -17 11 4 17 -2 22 -24 8 -34 25 -39 25 -7 0 21 0 21 21 2
20 -18 20 -27 3 -69 -7 -18 -6 -18 9 -6 14 11 20 11 32 1 11 -9 15 -9 15 -1 0
7 5 9 10 6 7 -4 7 -12 0 -25 -7 -12 -7 -27 0 -45 7 -18 7 -33 0 -46 -7 -13 -7
-19 0 -19 5 0 10 7 10 15 0 8 7 15 16 15 8 0 12 -4 9 -10 -3 -5 0 -10 7 -11 7
0 1 -5 -13 -10 -19 -7 -29 -22 -40 -57 -13 -45 -16 -47 -46 -44 -18 2 -33 -1
-33 -6 0 -5 -11 -14 -25 -20 -17 -8 -25 -8 -25 -1 0 6 -9 8 -20 4 -25 -8 -91
5 -84 16 3 5 1 9 -5 9 -5 0 -13 -4 -16 -10 -10 -16 -28 -12 -21 5 7 19 -4 19
-31 0 -35 -25 -106 -46 -130 -40 -33 8 -91 63 -113 106 -27 52 -35 113 -21
157 9 26 9 44 2 62 -9 22 -10 20 -10 -22 -1 -27 -5 -48 -11 -48 -5 0 -10 -7
-10 -17 0 -27 -13 -6 -15 27 -2 16 1 28 5 25 5 -3 11 13 15 36 4 22 13 43 21
46 7 2 16 14 20 25 3 11 12 17 19 14 9 -3 12 0 8 10 -3 7 0 14 6 14 6 0 11 7
11 15 0 9 9 15 25 15 18 0 23 4 19 15 -4 9 0 15 10 15 9 0 16 -8 16 -17 0 -14
3 -13 20 5 12 12 30 22 40 22 11 0 20 6 20 14 0 11 10 13 40 9 33 -5 40 -3 40
11 0 10 5 14 10 11 6 -3 10 -13 10 -21z m-7120 6 c0 -5 -6 -10 -12 -10 -9 0
-8 -3 2 -10 12 -8 12 -13 -2 -43 -11 -22 -13 -38 -7 -44 14 -14 -3 -48 -24
-50 -14 -1 -16 3 -11 15 4 10 8 32 8 50 0 22 4 32 15 32 11 0 12 3 5 8 -7 4
-12 19 -12 35 0 20 5 27 19 27 11 0 19 -4 19 -10z m736 -80 c48 -30 68 -98 61
-204 -3 -45 -12 -98 -21 -118 -29 -69 -161 -128 -237 -108 -41 11 -117 63
-126 86 -4 11 -15 13 -46 9 -35 -6 -39 -4 -29 8 10 12 9 16 -4 21 -8 3 -25 6
-35 6 -13 0 -18 4 -13 12 5 7 2 9 -7 6 -8 -3 -22 3 -32 12 -16 15 -16 18 -2
23 8 4 15 16 15 27 0 24 18 27 27 4 3 -9 0 -20 -8 -25 -10 -6 -8 -9 9 -9 18 0
23 5 22 23 -4 47 0 87 10 87 6 0 10 -9 10 -20 0 -11 4 -20 8 -20 5 0 8 22 7
50 -1 39 1 48 11 39 9 -7 14 -4 19 12 6 17 9 19 16 8 6 -10 9 -6 9 15 0 21 4
27 15 23 8 -4 17 -1 21 5 4 7 9 6 14 -2 5 -8 15 -10 26 -5 31 14 177 52 203
54 13 0 38 -8 57 -19z m-251 0 c3 -5 1 -10 -4 -10 -6 0 -11 5 -11 10 0 6 2 10
4 10 3 0 8 -4 11 -10z m6330 -10 c3 -5 1 -10 -4 -10 -6 0 -11 5 -11 10 0 6 2
10 4 10 3 0 8 -4 11 -10z m-6845 -121 c-6 -11 -15 -17 -20 -14 -9 5 -7 -16 5
-77 2 -10 -1 -21 -6 -24 -5 -3 -6 -10 -3 -16 5 -7 2 -8 -5 -3 -7 4 -11 18 -8
31 2 13 -1 26 -7 29 -7 3 -6 7 3 11 10 5 10 8 1 14 -14 9 -6 43 16 65 21 20
37 9 24 -16z m6800 27 c0 -3 -4 -8 -10 -11 -5 -3 -10 -1 -10 4 0 6 5 11 10 11
6 0 10 -2 10 -4z m-6480 -76 c0 -5 -4 -10 -9 -10 -6 0 -13 5 -16 10 -3 6 1 10
9 10 9 0 16 -4 16 -10z m7130 -45 c-7 -8 -17 -12 -22 -9 -6 4 -5 10 3 15 22
14 33 10 19 -6z m-680 -5 c0 -5 -5 -10 -11 -10 -5 0 -7 5 -4 10 3 6 8 10 11
10 2 0 4 -4 4 -10z m-6525 -40 c-5 -8 -11 -8 -21 1 -12 10 -12 14 -2 20 16 10
33 -5 23 -21z m175 -100 c0 -5 -2 -10 -4 -10 -3 0 -8 5 -11 10 -3 6 -1 10 4
10 6 0 11 -4 11 -10z m6685 -90 c3 -5 -1 -10 -10 -10 -9 0 -13 5 -10 10 3 6 8
10 10 10 2 0 7 -4 10 -10z m-6965 -120 c0 -5 -2 -10 -4 -10 -3 0 -8 5 -11 10
-3 6 -1 10 4 10 6 0 11 -4 11 -10z m104 -55 c20 -8 36 -17 36 -18 0 -8 -62 3
-75 13 -8 6 -20 8 -26 4 -8 -4 -9 -3 -5 4 10 16 26 15 70 -3z m171 -135 c3 -5
-3 -10 -14 -10 -11 0 -23 5 -26 10 -3 6 3 10 14 10 11 0 23 -4 26 -10z m-781
-167 c4 -9 2 -21 -4 -27 -7 -7 -10 -7 -10 1 0 6 -3 18 -6 27 -3 9 -2 16 4 16
5 0 13 -8 16 -17z m56 -400 c0 -13 -5 -23 -11 -23 -7 0 -9 10 -7 25 3 14 1 25
-4 25 -5 0 -6 5 -2 11 9 15 24 -9 24 -38z m8050 -525 c0 -6 -6 -5 -15 2 -8 7
-15 14 -15 16 0 2 7 1 15 -2 8 -4 15 -11 15 -16z m-20 -12 c0 -2 -8 -10 -17
-17 -16 -13 -17 -12 -4 4 13 16 21 21 21 13z m7 -76 c-10 -29 -16 -37 -20 -26
-3 8 -2 18 3 21 6 4 10 16 10 29 0 12 3 26 7 30 14 14 14 -13 0 -54z m-57 -95
c0 -8 -4 -15 -10 -15 -5 0 -7 7 -4 15 4 8 8 15 10 15 2 0 4 -7 4 -15z m-3625
-225 c31 -29 31 -45 1 -65 -19 -13 -55 -15 -207 -13 l-184 3 -3 28 c-3 23 2
30 32 42 40 17 213 35 289 31 34 -2 55 -10 72 -26z"/>
<path d="M5022 7452 c-192 -4 -179 -22 16 -22 147 0 222 7 222 19 0 8 -11 8
-238 3z"/>
<path d="M5335 7450 c-4 -6 29 -10 92 -10 67 0 93 3 83 10 -20 13 -167 13
-175 0z"/>
<path d="M5555 7450 c-3 -5 3 -10 15 -10 12 0 18 5 15 10 -3 6 -10 10 -15 10
-5 0 -12 -4 -15 -10z"/>
<path d="M5635 7449 c-30 -7 -21 -7 200 -14 444 -14 505 -15 505 -7 0 6 -6 9
-12 9 -7 -1 -69 2 -138 6 -175 11 -519 14 -555 6z"/>
<path d="M5278 7443 c6 -2 18 -2 25 0 6 3 1 5 -13 5 -14 0 -19 -2 -12 -5z"/>
<path d="M3300 7379 c0 -5 5 -7 10 -4 6 3 10 8 10 11 0 2 -4 4 -10 4 -5 0 -10
-5 -10 -11z"/>
<path d="M3178 7323 c7 -3 16 -2 19 1 4 3 -2 6 -13 5 -11 0 -14 -3 -6 -6z"/>
<path d="M3245 7320 c-3 -5 -1 -10 4 -10 6 0 11 5 11 10 0 6 -2 10 -4 10 -3 0
-8 -4 -11 -10z"/>
<path d="M3050 7310 c0 -5 5 -10 10 -10 6 0 10 5 10 10 0 6 -4 10 -10 10 -5 0
-10 -4 -10 -10z"/>
<path d="M3130 7309 c0 -6 -4 -8 -9 -4 -13 7 -21 -8 -13 -22 5 -8 14 -6 29 7
18 14 20 19 8 24 -8 3 -15 1 -15 -5z"/>
<path d="M3076 7263 c-6 -14 -5 -15 5 -6 7 7 10 15 7 18 -3 3 -9 -2 -12 -12z"/>
<path d="M3555 7199 c-257 -19 -394 -89 -466 -237 -19 -37 -35 -71 -36 -77 -1
-5 -8 -32 -15 -60 -7 -27 -18 -56 -25 -63 -9 -10 -11 -30 -7 -70 4 -31 8 -59
10 -61 8 -9 16 9 21 42 16 121 18 127 33 116 10 -7 11 -12 4 -15 -8 -3 -9 -16
-4 -41 5 -21 4 -47 -1 -62 -6 -14 -11 -54 -11 -88 0 -35 -4 -63 -9 -63 -5 0
-9 -12 -9 -27 0 -52 -23 -193 -32 -193 -4 0 -8 8 -8 17 0 10 -10 -1 -22 -22
-21 -38 -22 -52 -22 -260 0 -235 26 -507 64 -670 23 -97 74 -235 108 -290 36
-58 170 -186 228 -217 l49 -26 430 -10 c1022 -22 2684 -25 2835 -4 205 28 303
70 410 176 80 79 148 177 175 252 10 27 24 56 32 65 7 9 11 18 7 21 -3 3 2 23
11 44 21 50 24 72 36 239 12 157 4 758 -12 928 -20 221 -62 321 -188 447 -99
99 -189 144 -351 176 -109 21 -150 23 -810 32 -882 12 -2268 13 -2425 1z
m-108 -46 c-3 -2 -21 -6 -41 -9 -20 -2 -55 -11 -79 -19 -53 -18 -62 -19 -44
-1 7 8 45 20 83 28 63 13 93 13 81 1z m63 1 c0 -2 -9 -4 -21 -4 -11 0 -18 4
-14 10 5 8 35 3 35 -6z m-488 -1126 c2 -21 0 -38 -4 -38 -4 0 -7 24 -7 53 1
54 5 49 11 -15z"/>
<path d="M2971 6514 c0 -11 3 -14 6 -6 3 7 2 16 -1 19 -3 4 -6 -2 -5 -13z"/>
<path d="M2998 6492 c-3 -9 -1 -26 3 -37 6 -15 8 -11 8 18 1 40 -4 48 -11 19z"/>
<path d="M2992 6390 c0 -14 2 -19 5 -12 2 6 2 18 0 25 -3 6 -5 1 -5 -13z"/>
<path d="M8260 6609 c0 -5 5 -7 10 -4 6 3 10 8 10 11 0 2 -4 4 -10 4 -5 0 -10
-5 -10 -11z"/>
<path d="M8229 6573 c-13 -16 -12 -17 4 -4 9 7 17 15 17 17 0 8 -8 3 -21 -13z"/>
<path d="M8190 6560 c0 -5 5 -10 11 -10 5 0 7 5 4 10 -3 6 -8 10 -11 10 -2 0
-4 -4 -4 -10z"/>
<path d="M8196 6515 c-3 -8 -1 -15 4 -15 6 0 10 7 10 15 0 8 -2 15 -4 15 -2 0
-6 -7 -10 -15z"/>
<path d="M1784 6575 c-9 -22 1 -29 15 -11 8 10 9 16 1 21 -5 3 -13 -1 -16 -10z"/>
<path d="M1723 6400 c0 -25 2 -35 4 -22 2 12 2 32 0 45 -2 12 -4 2 -4 -23z"/>
<path d="M8515 7550 c3 -5 13 -10 21 -10 8 0 14 5 14 10 0 6 -9 10 -21 10 -11
0 -17 -4 -14 -10z"/>
<path d="M9095 7320 c-3 -5 -1 -10 4 -10 6 0 11 5 11 10 0 6 -2 10 -4 10 -3 0
-8 -4 -11 -10z"/>
<path d="M1860 7299 c0 -5 5 -7 10 -4 6 3 10 8 10 11 0 2 -4 4 -10 4 -5 0 -10
-5 -10 -11z"/>
<path d="M1750 7219 c0 -5 5 -7 10 -4 6 3 10 8 10 11 0 2 -4 4 -10 4 -5 0 -10
-5 -10 -11z"/>
<path d="M1297 6979 c-9 -6 -17 -17 -17 -24 0 -11 6 -9 21 6 24 24 22 32 -4
18z"/>
<path d="M802 6285 c0 -16 2 -22 5 -12 2 9 2 23 0 30 -3 6 -5 -1 -5 -18z"/>
<path d="M9136 4878 c-3 -13 -6 -27 -6 -33 1 -15 30 27 30 42 0 22 -17 15 -24
-9z"/>
<path d="M9080 4853 c0 -14 19 -38 25 -32 8 8 -5 39 -16 39 -5 0 -9 -3 -9 -7z"/>
</g>
</svg>
